<svg width="479" height="115" viewBox="0 0 479 115" fill="none" xmlns="http://www.w3.org/2000/svg">
<path d="M136 57.5C116 49.3181 100.449 66 102 81C103.552 96 115.5 107 134 101.5C152.5 96 156 65.6818 136 57.5ZM136 57.5C143.5 60.5 154.5 65 162 103M68.0004 103C73.0001 97.0005 80.0003 89.4999 82.5003 72.4999C85.0003 55.5 66.5002 50.4999 58.5002 59.4999C50.5002 68.5 51.5005 76.0002 51.0002 77.4999C50.4999 76.0002 51.5002 68.5 43.5002 59.4999C35.5002 50.4999 17.0001 55.5 19.5001 72.4999C22.0001 89.4999 29.0001 97.0004 33.9999 103" stroke="#021757" stroke-width="16" stroke-linecap="round" stroke-linejoin="round"/>
<path d="M377.5 57.4996C357.5 49.3177 341.948 65.9996 343.5 80.9996C345.052 95.9996 357 107 375.5 101.5C394 95.9996 397.5 65.6814 377.5 57.4996ZM377.5 57.4996C385 60.4996 396 64.9996 403.5 103M463.5 62.4996C442.5 48.9996 414.5 56.4996 416 70.4996C417.5 84.4996 434 80.1054 442.5 78.4996C451 76.8938 467.5 78.9997 467.5 88.9996C468 109 434.5 103 423 97.9996M309 103C314 97.0003 321 89.4997 323.5 72.4997C326 55.4997 307.5 50.4997 299.5 59.4997C291.5 68.4998 292.5 76 292 77.4997C291.5 76 292.5 68.4997 284.5 59.4997C276.5 50.4997 258 55.4997 260.5 72.4997C263 89.4997 270 97.0002 275 103" stroke="#500022" stroke-width="16" stroke-linecap="round" stroke-linejoin="round"/>
<path d="M218.5 62.5C201.5 46.5001 174.769 61 178 82C181.231 103 206 110.5 221 93.5M238 55C239 60.5 241.5 82 241.5 103" stroke="#34394A" stroke-width="16" stroke-linecap="round" stroke-linejoin="round"/>
<circle cx="230" cy="28" r="16" fill="#2B2F3E"/>
<path d="M132 53.5C112 45.3181 96.4485 62 98.0002 77C99.5519 92 111.5 103 130 97.5C148.5 92 152 61.6818 132 53.5ZM132 53.5C139.5 56.5 150.5 61 158 99.0002M64.0004 99.0002C69.0001 93.0005 76.0003 85.4999 78.5003 68.4999C81.0003 51.5 62.5002 46.4999 54.5002 55.4999C46.5002 64.5 47.5005 72.0002 47.0002 73.4999C46.4999 72.0002 47.5002 64.5 39.5002 55.4999C31.5002 46.4999 13.0001 51.5 15.5001 68.4999C18.0001 85.4999 25.0001 93.0004 29.9999 99.0002" stroke="#4169E1" stroke-width="16" stroke-linecap="round" stroke-linejoin="round"/>
<path d="M373.5 53.4996C353.5 45.3177 337.948 61.9996 339.5 76.9996C341.052 91.9996 353 103 371.5 97.4996C390 91.9996 393.5 61.6814 373.5 53.4996ZM373.5 53.4996C381 56.4996 392 60.9996 399.5 98.9997M459.5 58.4996C438.5 44.9996 410.5 52.4996 412 66.4996C413.5 80.4996 430 76.1054 438.5 74.4996C447 72.8938 463.5 74.9997 463.5 84.9996C464 105 430.5 98.9997 419 93.9996M305 99C310 93.0003 317 85.4997 319.5 68.4997C322 51.4997 303.5 46.4997 295.5 55.4997C287.5 64.4998 288.5 72 288 73.4997C287.5 72 288.5 64.4997 280.5 55.4997C272.5 46.4997 254 51.4997 256.5 68.4997C259 85.4997 266 93.0002 271 99" stroke="#FF341C" stroke-width="16" stroke-linecap="round" stroke-linejoin="round"/>
<path d="M214.5 58.5C197.5 42.5001 170.769 57 174 78C177.231 99 202 106.5 217 89.5M234 51C235 56.5 237.5 78 237.5 99" stroke="white" stroke-width="16" stroke-linecap="round" stroke-linejoin="round"/>
<circle cx="226" cy="24" r="16" fill="white"/>
</svg>
