<svg width="493" height="125" viewBox="0 0 493 125" fill="none" xmlns="http://www.w3.org/2000/svg">
<circle cx="205" cy="82" r="13" fill="black"/>
<path d="M350.5 83.9995C348.948 68.9995 364.5 52.3177 384.5 60.4995C404.5 68.6813 401 98.9995 382.5 104.499C364 109.999 352.051 98.9995 350.5 83.9995Z" fill="black"/>
<path d="M384.5 60.4995C364.5 52.3177 348.948 68.9995 350.5 83.9995C352.051 98.9995 364 109.999 382.5 104.499C401 98.9995 404.5 68.6813 384.5 60.4995ZM384.5 60.4995C392 63.4995 403 67.9995 410.5 106M470.5 64.4995C449.5 50.9996 421.5 59.4996 423 73.4996C424.5 87.4996 441 83.1054 449.5 81.4996C458 79.8938 474.5 81.9997 474.5 91.9996C475 112 441.5 107 430 102M316 106C321 100 328 92.4997 330.5 75.4997C333 58.4997 314.5 53.4996 306.5 62.4997C298.5 71.4997 299.5 78.9999 299 80.4997C298.5 78.9999 299.5 71.4997 291.5 62.4997C283.5 53.4996 265 58.4997 267.5 75.4997C270 92.4997 277 100 282 106" stroke="black" stroke-width="36" stroke-linecap="round" stroke-linejoin="round"/>
<path d="M346.5 79.9995C344.948 64.9995 360.5 48.3177 380.5 56.4995C400.5 64.6813 397 94.9995 378.5 100.499C360 105.999 348.051 94.9995 346.5 79.9995Z" fill="black"/>
<path d="M380.5 56.4995C360.5 48.3177 344.948 64.9995 346.5 79.9995C348.051 94.9995 360 105.999 378.5 100.499C397 94.9995 400.5 64.6813 380.5 56.4995ZM380.5 56.4995C388 59.4995 399 63.9995 406.5 102M466.5 60.4995C445.5 46.9996 417.5 55.4996 419 69.4996C420.5 83.4996 437 79.1054 445.5 77.4996C454 75.8938 470.5 77.9997 470.5 87.9996C471 108 437.5 103 426 98M312 102C317 96.0002 324 88.4997 326.5 71.4997C329 54.4997 310.5 49.4996 302.5 58.4997C294.5 67.4997 295.5 74.9999 295 76.4997C294.5 74.9999 295.5 67.4997 287.5 58.4997C279.5 49.4996 261 54.4997 263.5 71.4997C266 88.4997 273 96.0001 278 102" stroke="black" stroke-width="36" stroke-linecap="round" stroke-linejoin="round"/>
<circle cx="237" cy="31" r="21" fill="black" stroke="black" stroke-width="10"/>
<path d="M225.5 65.5C208.5 49.5001 181.769 64 185 85C188.231 106 213 113.5 228 96.5M245 58C246 63.5 248.5 85 248.5 106" stroke="black" stroke-width="36" stroke-linecap="round" stroke-linejoin="round"/>
<circle cx="233" cy="27" r="21" fill="black" stroke="black" stroke-width="10"/>
<path d="M221.5 61.5C204.5 45.5001 177.769 60 181 81C184.231 102 209 109.5 224 92.5M241 54C242 59.5 244.5 81 244.5 102" stroke="black" stroke-width="36" stroke-linecap="round" stroke-linejoin="round"/>
<path d="M109 83.9999C107.449 68.9999 123 52.3181 143 60.4999C163 68.6817 159.5 99 141 104.5C122.5 110 110.552 98.9999 109 83.9999Z" fill="black"/>
<path d="M143 60.4999C123 52.3181 107.449 68.9999 109 83.9999C110.552 98.9999 122.5 110 141 104.5C159.5 99 163 68.6817 143 60.4999ZM143 60.4999C150.5 63.4999 161.5 68 169 106M75.0004 106C80.0001 100 87.0003 92.4999 89.5003 75.4999C92.0003 58.4999 73.5002 53.4999 65.5002 62.4999C57.5002 71.4999 58.5005 79.0001 58.0002 80.4999C57.4999 79.0001 58.5002 71.4999 50.5002 62.4999C42.5002 53.4999 24.0001 58.4999 26.5001 75.4999C29.0001 92.4999 36.0001 100 40.9999 106" stroke="black" stroke-width="36" stroke-linecap="round" stroke-linejoin="round"/>
<path d="M105 79.9999C103.449 64.9999 119 48.3181 139 56.4999C159 64.6817 155.5 95 137 100.5C118.5 106 106.552 94.9999 105 79.9999Z" fill="black"/>
<path d="M139 56.4999C119 48.3181 103.449 64.9999 105 79.9999C106.552 94.9999 118.5 106 137 100.5C155.5 95 159 64.6817 139 56.4999ZM139 56.4999C146.5 59.4999 157.5 64 165 102M71.0004 102C76.0001 96.0005 83.0003 88.4999 85.5003 71.4999C88.0003 54.4999 69.5002 49.4999 61.5002 58.4999C53.5002 67.4999 54.5005 75.0001 54.0002 76.4999C53.4999 75.0001 54.5002 67.4999 46.5002 58.4999C38.5002 49.4999 20.0001 54.4999 22.5001 71.4999C25.0001 88.4999 32.0001 96.0003 36.9999 102" stroke="black" stroke-width="36" stroke-linecap="round" stroke-linejoin="round"/>
<path d="M384.5 60.4995C364.5 52.3177 348.948 68.9995 350.5 83.9995C352.051 98.9995 364 109.999 382.5 104.499C401 98.9995 404.5 68.6813 384.5 60.4995ZM384.5 60.4995C392 63.4995 403 67.9995 410.5 106M470.5 64.4995C449.5 50.9996 421.5 59.4996 423 73.4996C424.5 87.4996 441 83.1054 449.5 81.4996C458 79.8938 474.5 81.9997 474.5 91.9996C475 112 441.5 107 430 102M316 106C321 100 328 92.4997 330.5 75.4997C333 58.4997 314.5 53.4996 306.5 62.4997C298.5 71.4997 299.5 78.9999 299 80.4997C298.5 78.9999 299.5 71.4997 291.5 62.4997C283.5 53.4996 265 58.4997 267.5 75.4997C270 92.4997 277 100 282 106" stroke="#500022" stroke-width="16" stroke-linecap="round" stroke-linejoin="round"/>
<path d="M380.5 56.4995C360.5 48.3177 344.948 64.9995 346.5 79.9995C348.051 94.9995 360 105.999 378.5 100.499C397 94.9995 400.5 64.6813 380.5 56.4995ZM380.5 56.4995C388 59.4995 399 63.9995 406.5 102M466.5 60.4995C445.5 46.9996 417.5 55.4996 419 69.4996C420.5 83.4996 437 79.1054 445.5 77.4996C454 75.8938 470.5 77.9997 470.5 87.9996C471 108 437.5 103 426 98M312 102C317 96.0002 324 88.4997 326.5 71.4997C329 54.4997 310.5 49.4996 302.5 58.4997C294.5 67.4997 295.5 74.9999 295 76.4997C294.5 74.9999 295.5 67.4997 287.5 58.4997C279.5 49.4996 261 54.4997 263.5 71.4997C266 88.4997 273 96.0001 278 102" stroke="url(#paint0_linear_1291_86)" stroke-width="16" stroke-linecap="round" stroke-linejoin="round"/>
<circle cx="237" cy="31" r="16" fill="#34394A"/>
<path d="M225.5 65.5C208.5 49.5001 181.769 64 185 85C188.231 106 213 113.5 228 96.5M245 58C246 63.5 248.5 85 248.5 106" stroke="#34394A" stroke-width="16" stroke-linecap="round" stroke-linejoin="round"/>
<circle cx="233" cy="27" r="16" fill="url(#paint1_linear_1291_86)"/>
<path d="M221.5 61.5C204.5 45.5001 177.769 60 181 81C184.231 102 209 109.5 224 92.5M241 54C242 59.5 244.5 81 244.5 102" stroke="url(#paint2_linear_1291_86)" stroke-width="16" stroke-linecap="round" stroke-linejoin="round"/>
<path d="M143 60.4999C123 52.3181 107.449 68.9999 109 83.9999C110.552 98.9999 122.5 110 141 104.5C159.5 99 163 68.6817 143 60.4999ZM143 60.4999C150.5 63.4999 161.5 68 169 106M75.0004 106C80.0001 100 87.0003 92.4999 89.5003 75.4999C92.0003 58.4999 73.5002 53.4999 65.5002 62.4999C57.5002 71.4999 58.5005 79.0001 58.0002 80.4999C57.4999 79.0001 58.5002 71.4999 50.5002 62.4999C42.5002 53.4999 24.0001 58.4999 26.5001 75.4999C29.0001 92.4999 36.0001 100 40.9999 106" stroke="#021757" stroke-width="16" stroke-linecap="round" stroke-linejoin="round"/>
<path d="M139 56.4999C119 48.3181 103.449 64.9999 105 79.9999C106.552 94.9999 118.5 106 137 100.5C155.5 95 159 64.6817 139 56.4999ZM139 56.4999C146.5 59.4999 157.5 64 165 102M71.0004 102C76.0001 96.0005 83.0003 88.4999 85.5003 71.4999C88.0003 54.4999 69.5002 49.4999 61.5002 58.4999C53.5002 67.4999 54.5005 75.0001 54.0002 76.4999C53.4999 75.0001 54.5002 67.4999 46.5002 58.4999C38.5002 49.4999 20.0001 54.4999 22.5001 71.4999C25.0001 88.4999 32.0001 96.0003 36.9999 102" stroke="url(#paint3_linear_1291_86)" stroke-width="16" stroke-linecap="round" stroke-linejoin="round"/>
<defs>
<linearGradient id="paint0_linear_1291_86" x1="366.887" y1="53.7014" x2="366.887" y2="102.472" gradientUnits="userSpaceOnUse">
<stop stop-color="#FF713E"/>
<stop offset="1" stop-color="#FF341C"/>
</linearGradient>
<linearGradient id="paint1_linear_1291_86" x1="233" y1="11" x2="233" y2="43" gradientUnits="userSpaceOnUse">
<stop stop-color="white"/>
<stop offset="1" stop-color="#C7CFF1"/>
</linearGradient>
<linearGradient id="paint2_linear_1291_86" x1="212.616" y1="54" x2="212.616" y2="102" gradientUnits="userSpaceOnUse">
<stop stop-color="white"/>
<stop offset="1" stop-color="#C7CFF1"/>
</linearGradient>
<linearGradient id="paint3_linear_1291_86" x1="93.635" y1="54.0918" x2="93.635" y2="102" gradientUnits="userSpaceOnUse">
<stop stop-color="#5196FF"/>
<stop offset="1" stop-color="#4169E1"/>
</linearGradient>
</defs>
</svg>
